<?xml version="1.0" encoding="utf-8"?>
<?xml-stylesheet type="text/xsl" href="rss1.xsl"?>
<rss version="2.0" xmlns:atom="http://www.w3.org/2005/Atom" xmlns:content="http://purl.org/rss/1.0/modules/content/" xmlns:dc="http://purl.org/dc/elements/1.1/" xmlns:media="http://search.yahoo.com/mrss/">
<channel>
 <title>Getty</title>
 <link>http://www.gettyimg.com/</link>
 <atom:link href="http://www.gettyimg.com/" rel="self" type="application/rss+xml" />

 
                <item>
                <title><![CDATA[【Cinema Center】MOVIE - Cars 2 (2011) (720p DSNP WEB-DL DDP5.1 H.264)]]></title>
                <link><![CDATA[https://sharemania.us/threads/cars-2-2011-720p-dsnp-web-dl-ddp5-1-h-264.233455/]]></link>
                <description><![CDATA[<article>
<blockquote class="messageText SelectQuoteContainer ugc baseHtml">
<div class="ToggleTriggerAnchor bbCodeSpoilerContainer">
<button type="button" class="button bbCodeSpoilerButton ToggleTrigger Tooltip JsOnly" data-target="> .SpoilerTarget"><span>Spoiler: <span class="SpoilerTitle">Media Information</span></span></button>
<div class="SpoilerTarget bbCodeSpoilerText">General<br>
Unique ID : 85008283176397786769000246030562531157 (0x3FF3FFF37C2DF55A05B2DBE9BBEC9755)<br>
Complete name : C:\Users\austi\Documents\StreamFab\StreamFab\Output\Disney+\Cars.2.2011.720p.DSNP.WEB-DL.DDP5.1.H.264.mkv<br>
Format : Matroska<br>
Format version : Version 4<br>
File size : 1.93 GiB<br>
Duration : 1 h 46 min<br>
Overall bit rate mode : Variable<br>
Overall bit rate : 2 598 kb/s<br>
Frame rate : 23.976 FPS<br>
Movie name : Cars 2<br>
Encoded date : 2023-12-02 01:16:24 UTC<br>
Writing application : mkvmerge v68.0.0 ('The Curtain') 64-bit<br>
Writing library : libebml v1.4.2 + libmatroska v1.6.4<br>
<br>
Video<br>
ID : 1<br>
Format : AVC<br>
Format/Info : Advanced Video Codec<br>
Format profile : High@L3.1<br>
Format settings : CABAC / 4 Ref Frames<br>
Format settings, CABAC : Yes<br>
Format settings, Reference frames : 4 frames<br>
Codec ID : V_MPEG4/ISO/AVC<br>
Duration : 1 h 46 min<br>
Bit rate mode : Variable<br>
Bit rate : 2 218 kb/s<br>
Maximum bit rate : 6 375 kb/s<br>
Width : 1 280 pixels<br>
Height : 720 pixels<br>
Display aspect ratio : 16:9<br>
Frame rate mode : Constant<br>
Frame rate : 23.976 (24000/1001) FPS<br>
Color space : YUV<br>
Chroma subsampling : 4:2:0<br>
Bit depth : 8 bits<br>
Scan type : Progressive<br>
Bits/(Pixel*Frame) : 0.100<br>
Time code of first frame : 00:00:00;00<br>
Stream size : 1.65 GiB (85%)<br>
Default : Yes<br>
Forced : No<br>
Color range : Limited<br>
Color primaries : BT.709<br>
Transfer characteristics : BT.709<br>
Matrix coefficients : BT.709<br>
<br>
Audio #1<br>
ID : 2<br>
Format : AAC LC<br>
Format/Info : Advanced Audio Codec Low Complexity<br>
Codec ID : A_AAC-2<br>
Duration : 1 h 46 min<br>
Bit rate : 125 kb/s<br>
Channel(s) : 2 channels<br>
Channel layout : L R<br>
Sampling rate : 48.0 kHz<br>
Frame rate : 46.875 FPS (1024 SPF)<br>
Compression mode : Lossy<br>
Stream size : 95.3 MiB (5%)<br>
Title : English (United States)<br>
Language : English (US)<br>
Default : Yes<br>
Forced : No<br>
<br>
Audio #2<br>
ID : 3<br>
Format : AAC LC<br>
Format/Info : Advanced Audio Codec Low Complexity<br>
Codec ID : A_AAC-2<br>
Duration : 1 h 46 min<br>
Bit rate : 125 kb/s<br>
Channel(s) : 2 channels<br>
Channel layout : L R<br>
Sampling rate : 48.0 kHz<br>
Frame rate : 46.875 FPS (1024 SPF)<br>
Compression mode : Lossy<br>
Stream size : 95.3 MiB (5%)<br>
Title : English [Audio Description]<br>
Language : English<br>
Default : No<br>
Forced : No<br>
<br>
Audio #3<br>
ID : 4<br>
Format : AAC LC<br>
Format/Info : Advanced Audio Codec Low Complexity<br>
Codec ID : A_AAC-2<br>
Duration : 1 h 46 min<br>
Bit rate : 125 kb/s<br>
Channel(s) : 2 channels<br>
Channel layout : L R<br>
Sampling rate : 48.0 kHz<br>
Frame rate : 46.875 FPS (1024 SPF)<br>
Compression mode : Lossy<br>
Stream size : 95.3 MiB (5%)<br>
Title : Spanish (Latin America)<br>
Language : Spanish (Latin America)<br>
Default : No<br>
Forced : No<br>
<br>
Text #1<br>
ID : 5<br>
Format : UTF-8<br>
Codec ID : S_TEXT/UTF8<br>
Codec ID/Info : UTF-8 Plain Text<br>
Duration : 1 h 37 min<br>
Bit rate : 90 b/s<br>
Frame rate : 0.285 FPS<br>
Count of elements : 1668<br>
Stream size : 64.6 KiB (0%)<br>
Title : English [CC]<br>
Language : English<br>
Default : Yes<br>
Forced : No<br>
<br>
Text #2<br>
ID : 6<br>
Format : UTF-8<br>
Codec ID : S_TEXT/UTF8<br>
Codec ID/Info : UTF-8 Plain Text<br>
Duration : 12 min 9 s<br>
Bit rate : 0 b/s<br>
Frame rate : 0.003 FPS<br>
Count of elements : 2<br>
Stream size : 33.0 Bytes (0%)<br>
Title : es-419--forced--<br>
Language : Spanish<br>
Default : No<br>
Forced : No<br>
<br>
Text #3<br>
ID : 7<br>
Format : UTF-8<br>
Codec ID : S_TEXT/UTF8<br>
Codec ID/Info : UTF-8 Plain Text<br>
Duration : 1 h 37 min<br>
Bit rate : 79 b/s<br>
Frame rate : 0.247 FPS<br>
Count of elements : 1442<br>
Stream size : 56.4 KiB (0%)<br>
Title : Español (Latinoamericano)<br>
Language : Spanish<br>
Default : No<br>
Forced : No</div>
</div><br>
<b>Release Name</b><br>
Cars.2.2011.720p.DSNP.WEB-DL.DDP5.1.H.264<br>
<br>
<b>Download</b><br>
<ul>
<li><b><a href="https://gofile.io/d/TVylPc" target="_blank" class="externalLink" rel="nofollow">https://gofile.io/d/TVylPc</a></b></li>
</ul>
<div class="messageTextEndMarker">&nbsp;</div>
</blockquote>
</article>]]></description>
                <author><![CDATA[Austin Zimmermann]]></author>
                </item>

                </channel></rss>